HIERARCHY
ROOT Hips
{
    OFFSET 0.000000 0.000000 0.000000
    CHANNELS 6 Xposition Yposition Zposition Zrotation Xrotation Yrotation
    JOINT Spine
    {
        OFFSET -0.000000 7.897928 0.000000
        CHANNELS 3 Zrotation Xrotation Yrotation
        JOINT Spine1
        {
            OFFSET -0.000000 22.881742 0.000000
            CHANNELS 3 Zrotation Xrotation Yrotation
            JOINT Neck
            {
                OFFSET -0.000000 22.787771 2.071616
                CHANNELS 3 Zrotation Xrotation Yrotation
                JOINT Head
                {
                    OFFSET -0.000000 13.484266 -1.926324
                    CHANNELS 3 Zrotation Xrotation Yrotation
                    End Site
                    {
                        OFFSET -0.000000 24.079046 0.000000
                    }
                }
            }
            JOINT LeftShoulder
            {
                OFFSET 3.854963 21.096247 -0.110468
                CHANNELS 3 Zrotation Xrotation Yrotation
                JOINT LeftArm
                {
                    OFFSET 10.572188 0.000000 0.000000
                    CHANNELS 3 Zrotation Xrotation Yrotation
                    JOINT LeftForeArm
                    {
                        OFFSET 34.932854 0.000000 0.000000
                        CHANNELS 3 Zrotation Xrotation Yrotation
                        JOINT LeftHand
                        {
                            OFFSET 23.279285 0.000000 0.000000
                            CHANNELS 3 Zrotation Xrotation Yrotation
                            End Site
                            {
                                OFFSET 14.447429 0.000000 0.000000
                            }
                        }
                    }
                }
            }
            JOINT RightShoulder
            {
                OFFSET -3.825334 21.096247 -0.110468
                CHANNELS 3 Zrotation Xrotation Yrotation
                JOINT RightArm
                {
                    OFFSET -10.572188 0.000000 0.000000
                    CHANNELS 3 Zrotation Xrotation Yrotation
                    JOINT RightForeArm
                    {
                        OFFSET -34.932854 0.000000 0.000000
                        CHANNELS 3 Zrotation Xrotation Yrotation
                        JOINT RightHand
                        {
                            OFFSET -23.279285 0.000000 0.000000
                            CHANNELS 3 Zrotation Xrotation Yrotation
                            End Site
                            {
                                OFFSET -14.447429 0.000000 0.000000
                            }
                        }
                    }
                }
            }
        }
    }
    JOINT LeftUpLeg
    {
        OFFSET 9.631618 0.000000 0.000000
        CHANNELS 3 Zrotation Xrotation Yrotation
        JOINT LeftLeg
        {
            OFFSET -0.000000 -35.385456 0.000000
            CHANNELS 3 Zrotation Xrotation Yrotation
            JOINT LeftFoot
            {
                OFFSET -0.000000 -43.284000 0.000000
                CHANNELS 3 Zrotation Xrotation Yrotation
                JOINT LeftToeBase
                {
                    OFFSET -0.000000 -6.260552 14.447429
                    CHANNELS 3 Zrotation Xrotation Yrotation
                    End Site
                    {
                        OFFSET -0.000000 0.000000 3.852648
                    }
                }
            }
        }
    }
    JOINT RightUpLeg
    {
        OFFSET -9.631618 0.000000 0.000000
        CHANNELS 3 Zrotation Xrotation Yrotation
        JOINT RightLeg
        {
            OFFSET -0.000000 -35.385456 0.000000
            CHANNELS 3 Zrotation Xrotation Yrotation
            JOINT RightFoot
            {
                OFFSET -0.000000 -43.284000 0.000000
                CHANNELS 3 Zrotation Xrotation Yrotation
                JOINT RightToeBase
                {
                    OFFSET -0.000000 -6.260552 14.447429
                    CHANNELS 3 Zrotation Xrotation Yrotation
                    End Site
                    {
                        OFFSET -0.000000 0.000000 3.852648
                    }
                }
            }
        }
    }
}
MOTION
Frames:    11
Frame Time:    0.008333
23.588047    88.717400    50.234337    -1.592474    -1.248039    82.881058    2.850071    -2.365991    -0.966726    -2.226941    -1.122124    -1.047398    -2.972030    17.317694    3.092432    6.484198    -2.837891    4.271170    22.348560    1.005046    4.023039    -16.631428    8.659163    -4.142045    4.120591    -8.018338    0.034063    -8.944338    -7.785117    -3.025490    -16.830551    -1.315176    9.687364    14.779728    0.226079    -1.892444    -1.325662    -3.788789    0.188102    2.959094    -3.754006    1.265509    3.703623    3.649855    5.536107    -3.737335    4.966047    -7.324399    -0.035464    -7.398049    18.144318    0.000000    0.000000    0.000000    -1.983548    -1.471645    -1.667002    4.182116    8.940827    1.455152    -1.404089    -6.351505    -9.752551    0.000000    0.000000    0.000000    
23.584366    88.718300    50.238441    -1.592183    -1.254165    82.888062    2.841814    -2.362281    -0.977100    -2.215102    -1.129574    -1.057547    -3.003636    17.367163    3.104664    6.500338    -2.881046    4.287269    22.332527    1.004574    4.025134    -16.614471    8.637223    -4.134503    4.120474    -7.996355    0.052100    -8.852012    -7.767123    -3.013346    -16.851362    -1.294539    9.707149    14.807658    0.239218    -1.889791    -1.318401    -3.887841    0.243643    2.603805    -3.857986    1.193850    3.719746    3.653285    5.517241    -3.751071    4.953947    -7.324446    -0.066455    -7.399981    18.159903    0.000000    0.000000    0.000000    -1.971921    -1.472694    -1.648138    4.183288    8.937829    1.439789    -1.437438    -6.345624    -9.762202    0.000000    0.000000    0.000000    
23.571522    88.713226    50.241459    -1.641363    -1.249833    82.884323    2.837700    -2.409833    -0.967325    -2.233819    -1.121524    -1.048880    -2.962573    17.359268    3.102678    6.487305    -2.869768    4.283029    22.373489    0.994107    4.011528    -16.633184    8.622667    -4.132946    4.132302    -7.983327    0.073032    -8.885523    -7.752342    -3.034456    -16.814955    -1.292151    9.697668    14.796244    0.267923    -1.899558    -1.301864    -3.878174    0.225065    2.570798    -3.846505    1.301221    3.730661    3.582759    5.526231    -3.759294    4.979815    -7.312910    -0.025412    -7.409189    18.142342    0.000000    0.000000    0.000000    -1.963937    -1.535015    -1.642838    4.175928    8.940582    1.442119    -1.432320    -6.356664    -9.761420    0.000000    0.000000    0.000000    
23.569593    88.711349    50.241043    -1.639025    -1.248387    82.883957    2.858846    -2.404799    -0.982234    -2.262635    -1.129796    -1.064614    -3.007069    17.378920    3.131883    6.515504    -2.882028    4.317764    22.340252    0.998470    4.036374    -16.593880    8.633769    -4.121954    4.137145    -8.010626    0.050903    -8.845949    -7.781837    -3.009368    -16.835114    -1.267298    9.759295    14.826300    0.265997    -1.920468    -1.305184    -3.899005    0.228683    2.531109    -3.867855    1.294987    3.733220    3.586364    5.507412    -3.768430    4.972144    -7.308786    -0.022231    -7.411959    18.155195    0.000000    0.000000    0.000000    -1.967476    -1.537158    -1.643721    4.182101    8.947826    1.415446    -1.442248    -6.367109    -9.737922    0.000000    0.000000    0.000000    
23.576406    88.717827    50.237732    -1.592510    -1.246289    82.891296    2.838165    -2.355953    -0.977854    -2.240506    -1.138221    -1.058560    -2.977973    17.460958    3.131572    6.452563    -2.993032    4.310954    22.331648    0.996679    4.026621    -16.601580    8.627279    -4.133196    4.154144    -8.042268    0.051345    -8.828668    -7.814312    -3.004791    -16.841160    -1.238907    9.743910    14.822144    0.290067    -1.921525    -1.314721    -3.933843    0.243081    2.521255    -3.902705    1.292331    3.715234    3.640388    5.503311    -3.755512    4.956733    -7.290663    -0.023937    -7.379220    18.132992    0.000000    0.000000    0.000000    -1.979544    -1.486719    -1.660953    4.179120    8.946769    1.446804    -1.421888    -6.351197    -9.749547    0.000000    0.000000    0.000000    
23.566883    88.711357    50.244308    -1.634490    -1.246997    82.886360    2.841374    -2.421096    -0.974612    -2.259136    -1.084818    -1.056081    -2.989717    17.424976    3.142902    6.494978    -2.984013    4.330274    22.357006    0.989782    4.043042    -16.601555    8.614673    -4.140475    4.154352    -8.069399    0.049028    -8.849531    -7.839324    -3.024475    -16.832233    -1.254317    9.751078    14.828053    0.293706    -1.933019    -1.338223    -3.903484    0.243306    2.678573    -3.870490    1.293079    3.737772    3.586496    5.518220    -3.771466    4.979445    -7.321922    -0.032292    -7.405482    18.149338    0.000000    0.000000    0.000000    -1.966887    -1.540672    -1.670699    4.175309    8.958467    1.461043    -1.429936    -6.365613    -9.757675    0.000000    0.000000    0.000000    
23.562824    88.712135    50.242485    -1.638084    -1.243154    82.881989    2.824270    -2.432116    -0.970723    -2.225564    -1.063580    -1.051397    -3.032983    17.437254    3.161772    6.507272    -3.026694    4.353480    22.336834    0.974265    4.039604    -16.603321    8.602242    -4.129164    4.156291    -8.101617    0.036625    -8.862494    -7.870775    -3.024577    -16.870129    -1.248626    9.750697    14.837277    0.290385    -1.933826    -1.330801    -3.914744    0.238638    2.665570    -3.882112    1.286889    3.729098    3.578447    5.526803    -3.764294    4.980330    -7.334696    -0.036766    -7.405225    18.164532    0.000000    0.000000    0.000000    -1.971193    -1.558439    -1.675626    4.174161    8.973335    1.453318    -1.431247    -6.361440    -9.738397    0.000000    0.000000    0.000000    
23.559919    88.711380    50.243843    -1.643942    -1.245325    82.880814    2.830923    -2.439952    -0.970483    -2.237466    -1.056860    -1.051490    -3.037904    17.463785    3.181367    6.509628    -3.078211    4.376270    22.336824    0.975902    4.055078    -16.598379    8.606350    -4.135291    4.163314    -8.139192    0.013494    -8.881797    -7.907284    -3.021333    -16.867006    -1.238147    9.757565    14.838813    0.282612    -1.936188    -1.334318    -3.914299    0.244025    2.679482    -3.882465    1.243123    3.733451    3.567642    5.555527    -3.759587    4.989765    -7.344100    -0.021306    -7.403662    18.140394    0.000000    0.000000    0.000000    -1.969379    -1.565050    -1.676315    4.179546    8.976341    1.457389    -1.451551    -6.359410    -9.743598    0.000000    0.000000    0.000000    
23.557243    88.710991    50.243122    -1.646635    -1.240055    82.878395    2.813056    -2.459831    -0.958922    -2.222618    -1.016280    -1.039032    -3.050595    17.460764    3.185943    6.530077    -3.117350    4.386598    22.349167    0.963634    4.061321    -16.609701    8.566175    -4.147014    4.151759    -8.140063    -0.022789    -8.890954    -7.907690    -3.007176    -16.868258    -1.244982    9.720291    14.824412    0.282988    -1.921292    -1.330730    -3.901096    0.234153    2.730294    -3.869087    1.232845    3.725947    3.568989    5.552538    -3.757742    4.979858    -7.348444    -0.028698    -7.395390    18.152184    0.000000    0.000000    0.000000    -1.979610    -1.577018    -1.671638    4.187520    8.987814    1.455036    -1.426280    -6.364088    -9.752756    0.000000    0.000000    0.000000    
23.556936    88.710930    50.245647    -1.641830    -1.245573    82.878159    2.820651    -2.452498    -0.966398    -2.220172    -1.029923    -1.046717    -3.122109    17.477354    3.223787    6.591871    -3.123223    4.435450    22.311094    0.966044    4.065213    -16.574795    8.623011    -4.135690    4.153294    -8.155468    -0.018549    -8.908214    -7.921015    -3.030388    -16.884289    -1.244160    9.759049    14.838290    0.276547    -1.942335    -1.331467    -3.871872    0.235979    2.744224    -3.840143    1.213662    3.729044    3.572902    5.554299    -3.751580    4.979620    -7.320508    -0.034273    -7.394457    18.124611    0.000000    0.000000    0.000000    -1.970833    -1.570029    -1.684223    4.183272    8.986586    1.444346    -1.445953    -6.367165    -9.725121    0.000000    0.000000    0.000000    
23.554857    88.711014    50.246185    -1.646196    -1.246361    82.873833    2.811599    -2.467283    -0.947426    -2.223988    -1.008559    -1.027564    -3.061913    17.506254    3.225147    6.539748    -3.183992    4.431227    22.349894    0.967381    4.048489    -16.600853    8.598063    -4.164862    4.139296    -8.125612    0.002548    -8.888879    -7.891643    -3.040471    -16.850653    -1.234756    9.720042    14.806418    0.262505    -1.938730    -1.323294    -3.828800    0.230156    2.769917    -3.797068    1.205034    3.728311    3.568068    5.561477    -3.752880    4.978689    -7.317885    -0.031966    -7.394014    18.130735    0.000000    0.000000    0.000000    -1.969352    -1.577172    -1.692296    4.182166    8.987830    1.462084    -1.449868    -6.353645    -9.727668    0.000000    0.000000    0.000000    
